<svg xmlns="http://www.w3.org/2000/svg" viewBox="0 0 41.17 55"><defs><style>.cls-1{fill:#fff;stroke:#fff;stroke-miterlimit:10;}</style></defs><title>application</title><g id="Layer_2" data-name="Layer 2"><g id="Layer_1-2" data-name="Layer 1"><path class="cls-1" d="M38.91.5H2.27A1.77,1.77,0,0,0,.5,2.27V52.73A1.77,1.77,0,0,0,2.27,54.5H29.45a1.8,1.8,0,0,0,1.19-.45l9.45-8.46a1.79,1.79,0,0,0,.58-1.32v-42A1.75,1.75,0,0,0,38.91.5ZM37.14,43.28H28.89v7.57l-.11.1H4.05V4.05H37.14V43.28Z"/><path class="cls-1" d="M23.84,32h-9a.92.92,0,0,0-.92.92v9a.92.92,0,0,0,.92.93h9a.93.93,0,0,0,.93-.93V33A.93.93,0,0,0,23.84,32Zm-.92,9H15.76V33.88h7.16Z"/><path class="cls-1" d="M24.66,18.3v-.06a.82.82,0,0,0-.82-.82h-9a.82.82,0,0,0-.82.82v9a.82.82,0,0,0,.82.82h9a.82.82,0,0,0,.82-.82V24l-1.44,1.45a2,2,0,0,1-.19.12v.82H15.66V19.05H23v.89Z"/><path class="cls-1" d="M26.34,17.77l-4.57,4.56L20,20.58a1.21,1.21,0,0,0-1.7,1.71l2.6,2.6a1.21,1.21,0,0,0,1.7,0l5.42-5.41a1.21,1.21,0,0,0-1.71-1.71Z"/><rect class="cls-1" x="8.77" y="9.14" width="23.65" height="2.47"/></g></g></svg>