<svg xmlns="http://www.w3.org/2000/svg" viewBox="0 0 512 469.29"><defs><style>.cls-1{fill:#fff;}</style></defs><title>class</title><g id="Layer_2" data-name="Layer 2"><g id="Layer_1-2" data-name="Layer 1"><path class="cls-1" d="M140.52,65.63a65.64,65.64,0,1,1,65.64,65.63A65.63,65.63,0,0,1,140.52,65.63ZM237.7,176a71.09,71.09,0,0,1,13.49-38.45A84,84,0,0,0,234,135.74H178.32a84.1,84.1,0,0,0-17.14,1.76,71.13,71.13,0,0,1,13.55,41.4,71.65,71.65,0,0,1,63-2.93Zm11.11,5.89a75,75,0,0,1,34.87,55.66,60.44,60.44,0,1,0-34.87-55.66ZM209.19,305.68a60.47,60.47,0,1,0-60.48-60.47A60.48,60.48,0,0,0,209.19,305.68Zm25.65,4.12h-51.3a77.52,77.52,0,0,0-77.43,77.43V450l.16,1,4.32,1.35c40.74,12.72,76.14,17,105.27,17,56.9,0,89.89-16.23,91.92-17.27l4.05-2h.42V387.23A77.49,77.49,0,0,0,234.84,309.8Zm100-62.43H284a74.46,74.46,0,0,1-23,51.91,92,92,0,0,1,65.72,88v19.34c50.26-1.85,79.23-16.09,81.14-17.05l4-2.06h.43V324.79A77.5,77.5,0,0,0,334.89,247.37ZM348.5,121a75,75,0,0,1,34.88,55.66A60.44,60.44,0,1,0,348.5,121Zm86.08,65.51H383.67a74.54,74.54,0,0,1-23,51.91,92,92,0,0,1,65.71,88v19.33c50.26-1.84,79.24-16.08,81.15-17.05l4-2.05H512V263.94A77.5,77.5,0,0,0,434.58,186.53ZM103.09,243.25a60.1,60.1,0,0,0,32.16-9.34,74.87,74.87,0,0,1,28.13-47.73c.06-1.14.17-2.26.17-3.4a60.47,60.47,0,1,0-60.46,60.47Zm54.31,56a74.58,74.58,0,0,1-23-51.62c-1.88-.14-3.75-.29-5.67-.29H77.43A77.52,77.52,0,0,0,0,324.8v62.75l.16,1,4.32,1.35c32.68,10.22,61.86,14.91,87.2,16.38V387.32A92,92,0,0,1,157.4,299.28Z"/></g></g></svg>