<svg xmlns="http://www.w3.org/2000/svg" viewBox="0 0 39.72 39.72"><defs><style>.cls-1{fill:#fff;fill-rule:evenodd;}</style></defs><title>exercise</title><g id="Layer_2" data-name="Layer 2"><g id="Layer_1-2" data-name="Layer 1"><path class="cls-1" d="M34.76,39.72H5a5,5,0,0,1-5-5V14.9a5,5,0,0,1,5-5H7.45V5a5,5,0,0,1,5-5H34.76a5,5,0,0,1,5,5V34.76A5,5,0,0,1,34.76,39.72Zm0-32.27A2.48,2.48,0,0,0,32.27,5H14.9a2.48,2.48,0,0,0-2.49,2.48V29.79a2.48,2.48,0,0,1-5,0V14.9h0A2.48,2.48,0,0,0,5,17.38V32.27a2.48,2.48,0,0,0,2.48,2.49H32.27a2.48,2.48,0,0,0,2.49-2.49ZM17.38,24.83H29.79v5H17.38Zm0-7.45H29.79v5H17.38Zm0-7.45H29.79v5H17.38Z"/></g></g></svg>