<svg xmlns="http://www.w3.org/2000/svg" xmlns:xlink="http://www.w3.org/1999/xlink" viewBox="0 0 24.59 38.51"><defs><style>.cls-1{fill:none;}.cls-2{clip-path:url(#clip-path);}.cls-3{isolation:isolate;}.cls-4{fill:#f2f2f2;}</style><clipPath id="clip-path" transform="translate(-0.83 -0.84)"><rect class="cls-1" width="26.62" height="40"/></clipPath></defs><title>help</title><g id="Layer_2" data-name="Layer 2"><g id="Layer_1-2" data-name="Layer 1"><g class="cls-2"><g id="Layer_2-2" data-name="Layer 2-2"><g id="Layer_1-2-2" data-name="Layer 1-2-2"><g class="cls-3"><path class="cls-4" d="M8.45,28.55a10.62,10.62,0,0,1,1.08-5.34,18,18,0,0,1,4.21-4.12,13.81,13.81,0,0,0,3-3.26,7.13,7.13,0,0,0,1.11-3.91,5.24,5.24,0,0,0-1.27-3.75,4.66,4.66,0,0,0-3.61-1.36A4.86,4.86,0,0,0,9.66,8a4.26,4.26,0,0,0-1.37,3.36H.89l-.06-.16A9,9,0,0,1,4.13,3.5,13.83,13.83,0,0,1,12.93.84q5.85,0,9.17,3a10.23,10.23,0,0,1,3.32,8A10.61,10.61,0,0,1,23.48,18a17.48,17.48,0,0,1-4.86,4.72,6.27,6.27,0,0,0-2.09,2.46,9.45,9.45,0,0,0-.49,3.4Zm7.64,10.8H8.42V32.83h7.67Z" transform="translate(-0.83 -0.84)"/></g></g></g></g></g></g></svg>