<svg xmlns="http://www.w3.org/2000/svg" viewBox="0 0 48.09 48.02"><defs><style>.cls-1{fill:#fff;stroke:#fff;stroke-miterlimit:10;stroke-width:2px;}</style></defs><title>room</title><g id="Layer_2" data-name="Layer 2"><g id="Layer_1-2" data-name="Layer 1"><path class="cls-1" d="M23.94,1l-.12,0a1.06,1.06,0,0,0-.38.16L1.69,9.09A1,1,0,0,0,1,10V36.78A1,1,0,0,0,1.73,38l.09,0h0l.09,0,21.78,8.88a1.08,1.08,0,0,0,.79,0l21.9-9,.1,0a1.1,1.1,0,0,0,.25-.19h0a1,1,0,0,0,.25-1V10a1,1,0,0,0-.66-.94L24.6,1.19l-.06,0,0,0-.13,0-.06,0h0l-.07,0A1.27,1.27,0,0,0,23.94,1ZM23,3.47V28.34L3,35.59V10.72Zm2,0,20,7.25V35.59l-5-1.81V16.34a1,1,0,0,0-.66-.93l-9-3.32a1.06,1.06,0,0,0-.5-.06A1,1,0,0,0,29,13V29.78l-4-1.44ZM17.91,12a1.14,1.14,0,0,0-.25.06l-9,3.6a1,1,0,0,0-.62.94v10a1,1,0,0,0,1.37.93l9-3.53a1,1,0,0,0,.63-.94V13a1,1,0,0,0-1-1ZM31,14.47,38,17v16l-7-2.53Zm-14,0v7.91l-7,2.78V17.28Zm7,15.59,19.22,7L24.1,44.91,4.85,37.06Z"/></g></g></svg>